<?xml version="1.0" encoding="UTF-8" standalone="no"?>
<svg
   xmlns:dc="http://purl.org/dc/elements/1.1/"
   xmlns:cc="http://creativecommons.org/ns#"
   xmlns:rdf="http://www.w3.org/1999/02/22-rdf-syntax-ns#"
   xmlns:svg="http://www.w3.org/2000/svg"
   xmlns="http://www.w3.org/2000/svg"
   xmlns:sodipodi="http://sodipodi.sourceforge.net/DTD/sodipodi-0.dtd"
   xmlns:inkscape="http://www.inkscape.org/namespaces/inkscape"
   width="128"
   height="128"
   viewBox="0 0 128 128"
   version="1.1"
   id="svg2"
   inkscape:version="0.91 r13725"
   sodipodi:docname="index.svg">
  <metadata
     id="metadata15">
    <rdf:RDF>
      <cc:Work
         rdf:about="">
        <dc:format>image/svg+xml</dc:format>
        <dc:type
           rdf:resource="http://purl.org/dc/dcmitype/StillImage" />
        <dc:title>Shape</dc:title>
      </cc:Work>
    </rdf:RDF>
  </metadata>
  <defs
     id="defs13" />
  <sodipodi:namedview
     pagecolor="#ffffff"
     bordercolor="#666666"
     borderopacity="1"
     objecttolerance="10"
     gridtolerance="10"
     guidetolerance="10"
     inkscape:pageopacity="0"
     inkscape:pageshadow="2"
     inkscape:window-width="1254"
     inkscape:window-height="518"
     id="namedview11"
     showgrid="false"
     inkscape:zoom="1.84"
     inkscape:cx="8.5"
     inkscape:cy="73.717391"
     inkscape:window-x="313"
     inkscape:window-y="32"
     inkscape:window-maximized="0"
     inkscape:current-layer="svg2" />
  <!-- Generator: Sketch 52.2 (67145) - http://www.bohemiancoding.com/sketch -->
  <title
     id="title4">Shape</title>
  <desc
     id="desc6">Created with Sketch.</desc>
  <g
     id="Onepanel-for-provider---zone-"
     style="fill:none;fill-rule:evenodd;stroke:none;stroke-width:1"
     transform="matrix(4.9002557,0,0,4.9002557,22.347826,22.347826)">
    <g
       id="Spaces--Transfer-Expand--Copy-3"
       transform="translate(-602,-1039)"
       style="fill:#000000">
      <path
         d="m 619,1048.625 0,-8.25 c 0,-0.7562 -0.61875,-1.375 -1.375,-1.375 l -8.25,0 c -0.75625,0 -1.375,0.6188 -1.375,1.375 l 0,8.25 c 0,0.7563 0.61875,1.375 1.375,1.375 l 8.25,0 c 0.75625,0 1.375,-0.6187 1.375,-1.375 l 0,0 z m -14,-6.625 1.375,0 0,9.625 9.625,0 0,1.375 -9.625,0 c -0.75625,0 -1.375,-0.6187 -1.375,-1.375 l 0,-9.625 z m -3,3 1.375,0 0,9.625 9.625,0 0,1.375 -9.625,0 c -0.75625,0 -1.375,-0.6187 -1.375,-1.375 l 0,-9.625 z"
         id="Shape"
         inkscape:connector-curvature="0" />
    </g>
  </g>
</svg>
