<svg id="Layer_1" data-name="Layer 1" xmlns="http://www.w3.org/2000/svg" viewBox="0 0 128 128"><defs><style>.cls-1{fill:#050505;}</style></defs><title>1</title><path class="cls-1" d="M63.92,26.37a38.32,38.32,0,1,0,38.31,38.31A38.33,38.33,0,0,0,63.92,26.37Zm0,70.84A32.53,32.53,0,1,1,96.45,64.68,32.58,32.58,0,0,1,63.92,97.21Z"/><circle class="cls-1" cx="63.77" cy="44.67" r="4.44"/><polygon class="cls-1" points="66.88 57.87 66.88 56.29 66.88 54.99 58 54.99 58 57.87 60.96 57.87 60.96 82.28 58 82.28 58 85.15 69.83 85.15 69.83 82.28 66.88 82.28 66.88 57.87"/></svg>