<?xml version="1.0" encoding="UTF-8" standalone="no"?>
<svg
   xmlns:dc="http://purl.org/dc/elements/1.1/"
   xmlns:cc="http://creativecommons.org/ns#"
   xmlns:rdf="http://www.w3.org/1999/02/22-rdf-syntax-ns#"
   xmlns:svg="http://www.w3.org/2000/svg"
   xmlns="http://www.w3.org/2000/svg"
   xmlns:sodipodi="http://sodipodi.sourceforge.net/DTD/sodipodi-0.dtd"
   xmlns:inkscape="http://www.inkscape.org/namespaces/inkscape"
   viewBox="0 0 128 128"
   version="1.1"
   id="svg8"
   sodipodi:docname="provider-remove.svg"
   width="128"
   height="128"
   inkscape:version="0.92.2 5c3e80d, 2017-08-06">
  <metadata
     id="metadata14">
    <rdf:RDF>
      <cc:Work
         rdf:about="">
        <dc:format>image/svg+xml</dc:format>
        <dc:type
           rdf:resource="http://purl.org/dc/dcmitype/StillImage" />
        <dc:title>Zasób 20</dc:title>
      </cc:Work>
    </rdf:RDF>
  </metadata>
  <defs
     id="defs12" />
  <sodipodi:namedview
     pagecolor="#ffffff"
     bordercolor="#666666"
     borderopacity="1"
     objecttolerance="10"
     gridtolerance="10"
     guidetolerance="10"
     inkscape:pageopacity="0"
     inkscape:pageshadow="2"
     inkscape:window-width="1920"
     inkscape:window-height="1019"
     id="namedview10"
     showgrid="false"
     inkscape:zoom="4.3446245"
     inkscape:cx="26.298003"
     inkscape:cy="52.075481"
     inkscape:window-x="0"
     inkscape:window-y="0"
     inkscape:window-maximized="1"
     inkscape:current-layer="svg8" />
  <title
     id="title2">Zasób 20</title>
  <path
     d="m 30.2,39.156724 c 0,-7.048819 13.984496,-14.88734 34.18111,-14.88734 20.196617,0 34.181117,7.838521 34.181117,14.88734 0,7.048819 -13.9845,14.88734 -34.181117,14.88734 C 44.184496,54.044064 30.2,46.234792 30.2,39.156724 Z m 40.942207,58.730417 a 5.0563771,5.1184371 0 0 1 -5.027482,-5.11844 v -2.63234 H 64.38111 C 49.06751,90.165651 35.978717,85.953859 30.2,79.636245 v 9.183937 c 0,7.078069 13.984496,14.887358 34.18111,14.887358 A 56.775892,57.472737 0 0 0 90.992107,97.857891 Z M 64.38111,70.598552 c 20.225507,0 34.181117,-7.809273 34.181117,-14.88734 v -9.037698 c -5.77872,6.317614 -18.86751,10.675598 -34.181117,10.675598 -15.3136,0 -28.402393,-4.357984 -34.18111,-10.675598 v 9.037698 c 0,7.078067 13.984496,14.88734 34.18111,14.88734 z m 0,16.554485 h 1.733615 v -4.621215 a 5.0563771,5.1184371 0 0 1 5.027482,-5.089188 h 25.02185 A 7.7145869,7.8092726 0 0 0 98.562227,72.2657 V 63.228002 C 92.783507,69.545616 79.694717,73.9036 64.38111,73.9036 49.06751,73.9036 35.978717,69.399374 30.2,63.081761 V 72.2657 c 0,7.078067 13.984496,14.887337 34.18111,14.887337 z m 48.2234,-5.498657 a 3.1782941,3.2173032 0 0 1 3.17829,3.188055 v 6.434596 a 3.1782941,3.2173032 0 0 1 -3.17829,3.21731 H 74.551647 a 3.1782941,3.2173032 0 0 1 -3.1494,-3.21731 v -6.434596 a 3.1782941,3.2173032 0 0 1 3.1494,-3.188055 z m 0,0"
     id="path4"
     inkscape:connector-curvature="0"
     style="fill:#000000;stroke-width:2.90703559" />
</svg>
